<mxfile host="app.diagrams.net" modified="2022-01-11T11:24:19.695Z" agent="5.0 (Macintosh)" etag="nZkSG0ZOJ_U9oqbwd3g3" version="16.2.4" type="github">
  <diagram id="h3yvZHuDVqx76ZZUvNwj" name="Page-1">
    <mxGraphModel dx="670" dy="1936" grid="1" gridSize="10" guides="1" tooltips="1" connect="1" arrows="1" fold="1" page="1" pageScale="1" pageWidth="827" pageHeight="1169" math="0" shadow="0">
      <root>
        <mxCell id="0" />
        <mxCell id="1" parent="0" />
        <mxCell id="Xs_dgApI8MgLaQ3ucJ5b-5" value="&lt;div&gt;city&lt;/div&gt;" style="whiteSpace=wrap;html=1;align=center;" vertex="1" parent="1">
          <mxGeometry x="90" y="210" width="100" height="40" as="geometry" />
        </mxCell>
        <mxCell id="Xs_dgApI8MgLaQ3ucJ5b-6" value="street" style="whiteSpace=wrap;html=1;align=center;" vertex="1" parent="1">
          <mxGeometry x="180" y="420" width="100" height="40" as="geometry" />
        </mxCell>
        <mxCell id="Xs_dgApI8MgLaQ3ucJ5b-7" value="building" style="whiteSpace=wrap;html=1;align=center;" vertex="1" parent="1">
          <mxGeometry x="460" y="40" width="100" height="40" as="geometry" />
        </mxCell>
        <mxCell id="Xs_dgApI8MgLaQ3ucJ5b-11" style="rounded=0;orthogonalLoop=1;jettySize=auto;html=1;entryX=0.25;entryY=0;entryDx=0;entryDy=0;endArrow=none;endFill=0;" edge="1" parent="1" source="Xs_dgApI8MgLaQ3ucJ5b-8" target="Xs_dgApI8MgLaQ3ucJ5b-5">
          <mxGeometry relative="1" as="geometry" />
        </mxCell>
        <mxCell id="Xs_dgApI8MgLaQ3ucJ5b-8" value="city_name" style="ellipse;whiteSpace=wrap;html=1;align=center;fontStyle=4;" vertex="1" parent="1">
          <mxGeometry x="20" y="135" width="80" height="30" as="geometry" />
        </mxCell>
        <mxCell id="Xs_dgApI8MgLaQ3ucJ5b-13" style="rounded=0;orthogonalLoop=1;jettySize=auto;html=1;entryX=0.75;entryY=0;entryDx=0;entryDy=0;endArrow=none;endFill=0;" edge="1" parent="1" source="Xs_dgApI8MgLaQ3ucJ5b-9" target="Xs_dgApI8MgLaQ3ucJ5b-5">
          <mxGeometry relative="1" as="geometry" />
        </mxCell>
        <mxCell id="Xs_dgApI8MgLaQ3ucJ5b-9" value="area" style="ellipse;whiteSpace=wrap;html=1;align=center;" vertex="1" parent="1">
          <mxGeometry x="210" y="132.5" width="50" height="35" as="geometry" />
        </mxCell>
        <mxCell id="Xs_dgApI8MgLaQ3ucJ5b-12" style="rounded=0;orthogonalLoop=1;jettySize=auto;html=1;entryX=0.5;entryY=0;entryDx=0;entryDy=0;endArrow=none;endFill=0;" edge="1" parent="1" source="Xs_dgApI8MgLaQ3ucJ5b-10" target="Xs_dgApI8MgLaQ3ucJ5b-5">
          <mxGeometry relative="1" as="geometry" />
        </mxCell>
        <mxCell id="Xs_dgApI8MgLaQ3ucJ5b-10" value="year_of_found" style="ellipse;whiteSpace=wrap;html=1;align=center;" vertex="1" parent="1">
          <mxGeometry x="110" y="130" width="90" height="40" as="geometry" />
        </mxCell>
        <mxCell id="Xs_dgApI8MgLaQ3ucJ5b-19" style="edgeStyle=none;rounded=0;orthogonalLoop=1;jettySize=auto;html=1;endArrow=none;endFill=0;entryX=0.25;entryY=1;entryDx=0;entryDy=0;" edge="1" parent="1" source="Xs_dgApI8MgLaQ3ucJ5b-15" target="Xs_dgApI8MgLaQ3ucJ5b-6">
          <mxGeometry relative="1" as="geometry" />
        </mxCell>
        <mxCell id="Xs_dgApI8MgLaQ3ucJ5b-15" value="street_name" style="ellipse;whiteSpace=wrap;html=1;align=center;fontStyle=4;" vertex="1" parent="1">
          <mxGeometry x="50" y="480" width="100" height="40" as="geometry" />
        </mxCell>
        <mxCell id="Xs_dgApI8MgLaQ3ucJ5b-20" style="edgeStyle=none;rounded=0;orthogonalLoop=1;jettySize=auto;html=1;entryX=0.5;entryY=1;entryDx=0;entryDy=0;endArrow=none;endFill=0;" edge="1" parent="1" source="Xs_dgApI8MgLaQ3ucJ5b-17" target="Xs_dgApI8MgLaQ3ucJ5b-6">
          <mxGeometry relative="1" as="geometry" />
        </mxCell>
        <mxCell id="Xs_dgApI8MgLaQ3ucJ5b-17" value="street_length" style="ellipse;whiteSpace=wrap;html=1;align=center;" vertex="1" parent="1">
          <mxGeometry x="170" y="490" width="100" height="40" as="geometry" />
        </mxCell>
        <mxCell id="Xs_dgApI8MgLaQ3ucJ5b-21" style="edgeStyle=none;rounded=0;orthogonalLoop=1;jettySize=auto;html=1;entryX=0.75;entryY=1;entryDx=0;entryDy=0;endArrow=none;endFill=0;" edge="1" parent="1" source="Xs_dgApI8MgLaQ3ucJ5b-18" target="Xs_dgApI8MgLaQ3ucJ5b-6">
          <mxGeometry relative="1" as="geometry" />
        </mxCell>
        <mxCell id="Xs_dgApI8MgLaQ3ucJ5b-18" value="is_asphalted" style="ellipse;whiteSpace=wrap;html=1;align=center;" vertex="1" parent="1">
          <mxGeometry x="290" y="480" width="100" height="40" as="geometry" />
        </mxCell>
        <mxCell id="Xs_dgApI8MgLaQ3ucJ5b-28" value="N" style="edgeStyle=none;rounded=0;orthogonalLoop=1;jettySize=auto;html=1;entryX=0.929;entryY=0.533;entryDx=0;entryDy=0;entryPerimeter=0;endArrow=none;endFill=0;" edge="1" parent="1" source="Xs_dgApI8MgLaQ3ucJ5b-22" target="Xs_dgApI8MgLaQ3ucJ5b-24">
          <mxGeometry relative="1" as="geometry" />
        </mxCell>
        <mxCell id="Xs_dgApI8MgLaQ3ucJ5b-29" value="N" style="edgeStyle=none;rounded=0;orthogonalLoop=1;jettySize=auto;html=1;entryX=1;entryY=0.5;entryDx=0;entryDy=0;endArrow=none;endFill=0;" edge="1" parent="1" source="Xs_dgApI8MgLaQ3ucJ5b-22" target="Xs_dgApI8MgLaQ3ucJ5b-25">
          <mxGeometry relative="1" as="geometry" />
        </mxCell>
        <mxCell id="Xs_dgApI8MgLaQ3ucJ5b-22" value="address" style="whiteSpace=wrap;html=1;align=center;" vertex="1" parent="1">
          <mxGeometry x="450" y="225" width="100" height="40" as="geometry" />
        </mxCell>
        <mxCell id="Xs_dgApI8MgLaQ3ucJ5b-23" style="edgeStyle=none;rounded=0;orthogonalLoop=1;jettySize=auto;html=1;exitX=0.25;exitY=0;exitDx=0;exitDy=0;endArrow=none;endFill=0;" edge="1" parent="1" source="Xs_dgApI8MgLaQ3ucJ5b-22" target="Xs_dgApI8MgLaQ3ucJ5b-22">
          <mxGeometry relative="1" as="geometry" />
        </mxCell>
        <mxCell id="Xs_dgApI8MgLaQ3ucJ5b-26" style="edgeStyle=none;rounded=0;orthogonalLoop=1;jettySize=auto;html=1;entryX=1;entryY=0.5;entryDx=0;entryDy=0;endArrow=none;endFill=0;exitX=0;exitY=0.5;exitDx=0;exitDy=0;" edge="1" parent="1" source="Xs_dgApI8MgLaQ3ucJ5b-24" target="Xs_dgApI8MgLaQ3ucJ5b-5">
          <mxGeometry relative="1" as="geometry" />
        </mxCell>
        <mxCell id="Xs_dgApI8MgLaQ3ucJ5b-30" value="1" style="edgeLabel;html=1;align=center;verticalAlign=middle;resizable=0;points=[];" vertex="1" connectable="0" parent="Xs_dgApI8MgLaQ3ucJ5b-26">
          <mxGeometry x="0.0655" y="-1" relative="1" as="geometry">
            <mxPoint as="offset" />
          </mxGeometry>
        </mxCell>
        <mxCell id="Xs_dgApI8MgLaQ3ucJ5b-24" value="Contains" style="shape=rhombus;perimeter=rhombusPerimeter;whiteSpace=wrap;html=1;align=center;" vertex="1" parent="1">
          <mxGeometry x="260" y="225" width="84" height="45" as="geometry" />
        </mxCell>
        <mxCell id="Xs_dgApI8MgLaQ3ucJ5b-27" value="1" style="edgeStyle=none;rounded=0;orthogonalLoop=1;jettySize=auto;html=1;entryX=0.5;entryY=0;entryDx=0;entryDy=0;endArrow=none;endFill=0;exitX=0;exitY=0.5;exitDx=0;exitDy=0;" edge="1" parent="1" source="Xs_dgApI8MgLaQ3ucJ5b-25" target="Xs_dgApI8MgLaQ3ucJ5b-6">
          <mxGeometry relative="1" as="geometry" />
        </mxCell>
        <mxCell id="Xs_dgApI8MgLaQ3ucJ5b-25" value="Contains" style="shape=rhombus;perimeter=rhombusPerimeter;whiteSpace=wrap;html=1;align=center;" vertex="1" parent="1">
          <mxGeometry x="330" y="340" width="84" height="50" as="geometry" />
        </mxCell>
        <mxCell id="Xs_dgApI8MgLaQ3ucJ5b-40" value="" style="edgeStyle=none;rounded=0;orthogonalLoop=1;jettySize=auto;html=1;endArrow=none;endFill=0;" edge="1" parent="1" source="Xs_dgApI8MgLaQ3ucJ5b-31" target="Xs_dgApI8MgLaQ3ucJ5b-7">
          <mxGeometry relative="1" as="geometry" />
        </mxCell>
        <mxCell id="Xs_dgApI8MgLaQ3ucJ5b-31" value="building_cadaster" style="ellipse;whiteSpace=wrap;html=1;align=center;fontStyle=4;" vertex="1" parent="1">
          <mxGeometry x="322" y="40" width="100" height="40" as="geometry" />
        </mxCell>
        <mxCell id="Xs_dgApI8MgLaQ3ucJ5b-35" style="edgeStyle=none;rounded=0;orthogonalLoop=1;jettySize=auto;html=1;entryX=0.75;entryY=1;entryDx=0;entryDy=0;endArrow=none;endFill=0;" edge="1" parent="1" source="Xs_dgApI8MgLaQ3ucJ5b-32" target="Xs_dgApI8MgLaQ3ucJ5b-22">
          <mxGeometry relative="1" as="geometry" />
        </mxCell>
        <mxCell id="Xs_dgApI8MgLaQ3ucJ5b-32" value="street_name" style="ellipse;whiteSpace=wrap;html=1;align=center;" vertex="1" parent="1">
          <mxGeometry x="470" y="300" width="100" height="40" as="geometry" />
        </mxCell>
        <mxCell id="Xs_dgApI8MgLaQ3ucJ5b-34" value="" style="edgeStyle=none;rounded=0;orthogonalLoop=1;jettySize=auto;html=1;endArrow=none;endFill=0;entryX=1;entryY=0;entryDx=0;entryDy=0;" edge="1" parent="1" source="Xs_dgApI8MgLaQ3ucJ5b-33" target="Xs_dgApI8MgLaQ3ucJ5b-22">
          <mxGeometry relative="1" as="geometry" />
        </mxCell>
        <mxCell id="Xs_dgApI8MgLaQ3ucJ5b-33" value="&lt;u&gt;address_id&lt;/u&gt;" style="ellipse;whiteSpace=wrap;html=1;align=center;" vertex="1" parent="1">
          <mxGeometry x="600" y="210" width="100" height="40" as="geometry" />
        </mxCell>
        <mxCell id="Xs_dgApI8MgLaQ3ucJ5b-37" style="edgeStyle=none;rounded=0;orthogonalLoop=1;jettySize=auto;html=1;entryX=1;entryY=0.5;entryDx=0;entryDy=0;endArrow=none;endFill=0;" edge="1" parent="1" source="Xs_dgApI8MgLaQ3ucJ5b-36" target="Xs_dgApI8MgLaQ3ucJ5b-22">
          <mxGeometry relative="1" as="geometry" />
        </mxCell>
        <mxCell id="Xs_dgApI8MgLaQ3ucJ5b-36" value="city_name" style="ellipse;whiteSpace=wrap;html=1;align=center;" vertex="1" parent="1">
          <mxGeometry x="590" y="280" width="100" height="40" as="geometry" />
        </mxCell>
        <mxCell id="Xs_dgApI8MgLaQ3ucJ5b-39" value="" style="edgeStyle=none;rounded=0;orthogonalLoop=1;jettySize=auto;html=1;endArrow=none;endFill=0;" edge="1" parent="1" source="Xs_dgApI8MgLaQ3ucJ5b-38" target="Xs_dgApI8MgLaQ3ucJ5b-7">
          <mxGeometry relative="1" as="geometry" />
        </mxCell>
        <mxCell id="Xs_dgApI8MgLaQ3ucJ5b-38" value="address_id" style="ellipse;whiteSpace=wrap;html=1;align=center;" vertex="1" parent="1">
          <mxGeometry x="590" y="40" width="100" height="40" as="geometry" />
        </mxCell>
        <mxCell id="Xs_dgApI8MgLaQ3ucJ5b-42" style="edgeStyle=none;rounded=0;orthogonalLoop=1;jettySize=auto;html=1;entryX=1;entryY=0.75;entryDx=0;entryDy=0;endArrow=none;endFill=0;" edge="1" parent="1" source="Xs_dgApI8MgLaQ3ucJ5b-41" target="Xs_dgApI8MgLaQ3ucJ5b-7">
          <mxGeometry relative="1" as="geometry" />
        </mxCell>
        <mxCell id="Xs_dgApI8MgLaQ3ucJ5b-41" value="street_number" style="ellipse;whiteSpace=wrap;html=1;align=center;" vertex="1" parent="1">
          <mxGeometry x="590" y="95" width="100" height="40" as="geometry" />
        </mxCell>
        <mxCell id="Xs_dgApI8MgLaQ3ucJ5b-44" style="edgeStyle=none;rounded=0;orthogonalLoop=1;jettySize=auto;html=1;entryX=0;entryY=0.75;entryDx=0;entryDy=0;endArrow=none;endFill=0;" edge="1" parent="1" source="Xs_dgApI8MgLaQ3ucJ5b-43" target="Xs_dgApI8MgLaQ3ucJ5b-7">
          <mxGeometry relative="1" as="geometry" />
        </mxCell>
        <mxCell id="Xs_dgApI8MgLaQ3ucJ5b-43" value="year_of_found" style="ellipse;whiteSpace=wrap;html=1;align=center;" vertex="1" parent="1">
          <mxGeometry x="330" y="95" width="90" height="40" as="geometry" />
        </mxCell>
        <mxCell id="Xs_dgApI8MgLaQ3ucJ5b-46" style="edgeStyle=none;rounded=0;orthogonalLoop=1;jettySize=auto;html=1;entryX=0.5;entryY=0;entryDx=0;entryDy=0;endArrow=none;endFill=0;" edge="1" parent="1" source="Xs_dgApI8MgLaQ3ucJ5b-45" target="Xs_dgApI8MgLaQ3ucJ5b-7">
          <mxGeometry relative="1" as="geometry" />
        </mxCell>
        <mxCell id="Xs_dgApI8MgLaQ3ucJ5b-45" value="area" style="ellipse;whiteSpace=wrap;html=1;align=center;" vertex="1" parent="1">
          <mxGeometry x="485" y="-20" width="50" height="35" as="geometry" />
        </mxCell>
        <mxCell id="Xs_dgApI8MgLaQ3ucJ5b-49" value="" style="edgeStyle=none;rounded=0;orthogonalLoop=1;jettySize=auto;html=1;endArrow=none;endFill=0;" edge="1" parent="1" source="Xs_dgApI8MgLaQ3ucJ5b-48">
          <mxGeometry relative="1" as="geometry">
            <mxPoint x="510" y="80" as="targetPoint" />
          </mxGeometry>
        </mxCell>
        <mxCell id="Xs_dgApI8MgLaQ3ucJ5b-51" value="N" style="edgeLabel;html=1;align=center;verticalAlign=middle;resizable=0;points=[];" vertex="1" connectable="0" parent="Xs_dgApI8MgLaQ3ucJ5b-49">
          <mxGeometry x="0.2889" y="1" relative="1" as="geometry">
            <mxPoint as="offset" />
          </mxGeometry>
        </mxCell>
        <mxCell id="Xs_dgApI8MgLaQ3ucJ5b-50" style="edgeStyle=none;rounded=0;orthogonalLoop=1;jettySize=auto;html=1;entryX=0.5;entryY=0;entryDx=0;entryDy=0;endArrow=none;endFill=0;" edge="1" parent="1" source="Xs_dgApI8MgLaQ3ucJ5b-48" target="Xs_dgApI8MgLaQ3ucJ5b-22">
          <mxGeometry relative="1" as="geometry" />
        </mxCell>
        <mxCell id="Xs_dgApI8MgLaQ3ucJ5b-52" value="1" style="edgeLabel;html=1;align=center;verticalAlign=middle;resizable=0;points=[];" vertex="1" connectable="0" parent="Xs_dgApI8MgLaQ3ucJ5b-50">
          <mxGeometry x="0.1109" y="1" relative="1" as="geometry">
            <mxPoint as="offset" />
          </mxGeometry>
        </mxCell>
        <mxCell id="Xs_dgApI8MgLaQ3ucJ5b-48" value="Contains" style="shape=rhombus;perimeter=rhombusPerimeter;whiteSpace=wrap;html=1;align=center;" vertex="1" parent="1">
          <mxGeometry x="468" y="125" width="84" height="45" as="geometry" />
        </mxCell>
      </root>
    </mxGraphModel>
  </diagram>
</mxfile>
